<?xml version="1.0" encoding="utf-8"?>
<!-- Generator: Adobe Illustrator 24.1.1, SVG Export Plug-In . SVG Version: 6.00 Build 0)  -->
<svg version="1.1" id="레이어_1" xmlns="http://www.w3.org/2000/svg" x="0px"
  y="0px" viewBox="0 0 512 512" style="enable-background:new 0 0 512 512;" xml:space="preserve">
<style type="text/css">
	.st0{fill:#7BDE89;}
	.st1{fill:#171313;}
</style>
<circle class="st0" cx="256" cy="256" r="256"/>
<g transform="translate(6 6)">
	<path class="st1" d="M387.37,101.36c-10.74-1.85-21.61-2.8-32.51-2.85c-37.17-0.03-73.57,10.63-104.86,30.71
		c-31.37-19.82-67.76-30.21-104.86-29.96c-10.9,0.04-21.77,1-32.51,2.85c-7.27,1.25-12.54,7.61-12.43,14.98v179.76
		c-0.12,8.27,6.49,15.08,14.76,15.2c0.93,0.01,1.85-0.06,2.77-0.22c43.37-7.51,87.93,2.81,123.58,28.61l1.8,1.05h1.65
		c3.36,1.4,7.13,1.4,10.49,0h1.65l1.8-1.05c35.41-26.38,79.99-37.3,123.58-30.26c8.15,1.41,15.9-4.06,17.31-12.21
		c0.16-0.91,0.23-1.84,0.22-2.77V115.44C399.48,108.41,394.3,102.55,387.37,101.36z M235.02,300.44
		c-27.71-14.58-58.56-22.19-89.88-22.17c-4.94,0-9.89,0-14.98,0v-149.8c4.99-0.29,9.99-0.29,14.98,0
		c31.96-0.04,63.22,9.34,89.88,26.96V300.44z M369.84,278.87c-5.09,0-10.04,0-14.98,0c-31.32-0.02-62.16,7.59-89.88,22.17v-145.6
		c26.66-17.62,57.92-27,89.88-26.96c4.99-0.29,9.99-0.29,14.98,0V278.87z M387.37,341.04c-10.74-1.85-21.61-2.8-32.51-2.85
		c-37.17-0.03-73.57,10.63-104.86,30.71c-31.29-20.08-67.68-30.74-104.86-30.71c-10.9,0.04-21.77,1-32.51,2.85
		c-8.17,1.3-13.74,8.97-12.45,17.14c0,0.03,0.01,0.06,0.01,0.08c1.58,8.1,9.42,13.39,17.53,11.83
		c43.37-7.51,87.93,2.81,123.58,28.61c5.2,3.7,12.18,3.7,17.38,0c35.65-25.8,80.22-36.12,123.58-28.61
		c8.1,1.56,15.94-3.74,17.53-11.83c1.34-8.16-4.19-15.87-12.35-17.21C387.42,341.05,387.39,341.04,387.37,341.04z"/>
</g>
</svg>
